<?xml version="1.0" encoding="utf-8"?>
<!-- Generator: Adobe Illustrator 26.0.2, SVG Export Plug-In . SVG Version: 6.00 Build 0)  -->
<svg version="1.1" id="Layer_1" xmlns="http://www.w3.org/2000/svg" xmlns:xlink="http://www.w3.org/1999/xlink" x="0px" y="0px"
	 viewBox="0 0 38.3 36.5" style="enable-background:new 0 0 38.3 36.5;" xml:space="preserve">
<style type="text/css">
	.st0{fill:#B20838;}
	.st1{fill:#6DCAD7;}
	.st2{fill:#B7CA33;}
	.st3{fill:#00967F;}
</style>
<path class="st0" d="M4.3,28.6h3c0.3,0,0.6,0.3,0.6,0.6v0.9c0,0.3-0.3,0.6-0.6,0.6h-3c-0.3,0-0.6-0.3-0.6-0.6v-0.9
	C3.7,28.9,4,28.6,4.3,28.6z"/>
<path class="st0" d="M0.6,10.2h3c0.3,0,0.6,0.3,0.6,0.6v0.9c0,0.3-0.3,0.6-0.6,0.6h-3c-0.3,0-0.6-0.3-0.6-0.6v-0.9
	C0,10.5,0.3,10.2,0.6,10.2z"/>
<path class="st1" d="M38.3,16.3h-1.1c-0.3,0-0.6-0.3-0.6-0.6v-0.9c0-0.3,0.3-0.6,0.6-0.6h0.7C38.1,14.8,38.2,15.5,38.3,16.3z"/>
<path class="st2" d="M29.3,22.2h3c0.3,0,0.6,0.3,0.6,0.6v0.9c0,0.3-0.3,0.6-0.6,0.6h-3c-0.3,0-0.6-0.3-0.6-0.6v-0.9
	C28.7,22.5,29,22.2,29.3,22.2z"/>
<path class="st1" d="M19.8,15.3h3c0.3,0,0.6,0.3,0.6,0.6v0.9c0,0.3-0.3,0.6-0.6,0.6h-3c-0.3,0-0.6-0.3-0.6-0.6v-0.9
	C19.2,15.6,19.5,15.3,19.8,15.3z"/>
<path class="st3" d="M34.6,29.4c-0.5,0.7-1.1,1.4-1.7,2h-1.6c-0.3,0-0.6-0.3-0.6-0.6l0,0v-0.9c0-0.3,0.3-0.6,0.6-0.6l0,0h3
	C34.4,29.3,34.5,29.4,34.6,29.4z"/>
<path class="st2" d="M12,8.1h3c0.3,0,0.6,0.3,0.6,0.6v0.9c0,0.3-0.3,0.6-0.6,0.6h-3c-0.3,0-0.6-0.3-0.6-0.6V8.7
	C11.4,8.4,11.6,8.1,12,8.1z"/>
<path class="st0" d="M6.7,22.6h3c0.3,0,0.6,0.3,0.6,0.6v0.9c0,0.3-0.3,0.6-0.6,0.6h-3c-0.3,0-0.6-0.3-0.6-0.6v-0.9
	C6.1,22.9,6.4,22.6,6.7,22.6z"/>
<path class="st2" d="M32.5,15.8h3c0.3,0,0.6,0.3,0.6,0.6v0.9c0,0.3-0.3,0.6-0.6,0.6h-3c-0.3,0-0.6-0.3-0.6-0.6v-0.9
	C31.9,16.1,32.2,15.8,32.5,15.8z"/>
<path class="st0" d="M8.6,4.5h3c0.3,0,0.6,0.3,0.6,0.6v0.9c0,0.3-0.3,0.6-0.6,0.6h-3C8.3,6.7,8,6.4,8,6.1V5.1C8,4.8,8.3,4.5,8.6,4.5
	z"/>
<path class="st2" d="M34.2,6.3h-2.5c-0.3,0-0.6-0.3-0.6-0.6c0,0,0,0,0,0V4.8c0-0.3,0.3-0.6,0.6-0.6l0,0h0.5
	C32.9,4.9,33.5,5.6,34.2,6.3z"/>
<path class="st3" d="M6.8,11.3h3c0.3,0,0.6,0.3,0.6,0.6v0.9c0,0.3-0.3,0.6-0.6,0.6h-3c-0.3,0-0.6-0.3-0.6-0.6v-0.9
	C6.2,11.6,6.4,11.3,6.8,11.3z"/>
<path class="st0" d="M28,13.8h3c0.3,0,0.6,0.3,0.6,0.6v0.9c0,0.3-0.3,0.6-0.6,0.6h-3c-0.3,0-0.6-0.3-0.6-0.6v-0.9
	C27.4,14,27.7,13.8,28,13.8z"/>
<path class="st0" d="M18.1,28.4h3c0.3,0,0.6,0.3,0.6,0.6V30c0,0.3-0.3,0.6-0.6,0.6h-3c-0.3,0-0.6-0.3-0.6-0.6V29
	C17.5,28.7,17.7,28.4,18.1,28.4z"/>
<path class="st2" d="M20.2,9.3h3c0.3,0,0.6,0.3,0.6,0.6v0.9c0,0.3-0.3,0.6-0.6,0.6h-3c-0.3,0-0.6-0.3-0.6-0.6V9.9
	C19.6,9.6,19.9,9.3,20.2,9.3z"/>
<path class="st3" d="M12,1.5h3c0.3,0,0.6,0.3,0.6,0.6V3c0,0.3-0.3,0.6-0.6,0.6h-3c-0.3,0-0.6-0.3-0.6-0.6V2.1
	C11.4,1.8,11.7,1.5,12,1.5z"/>
<path class="st3" d="M20.2,24.4h3c0.3,0,0.6,0.3,0.6,0.6v0.9c0,0.3-0.3,0.6-0.6,0.6h-3c-0.3,0-0.6-0.3-0.6-0.6V25
	C19.6,24.7,19.9,24.4,20.2,24.4z"/>
<path class="st3" d="M23.4,30.3h3c0.3,0,0.6,0.3,0.6,0.6v0.9c0,0.3-0.3,0.6-0.6,0.6h-3c-0.3,0-0.6-0.3-0.6-0.6v-0.9
	C22.8,30.6,23.1,30.3,23.4,30.3z"/>
<path class="st0" d="M15.6,11.9h3c0.3,0,0.6,0.3,0.6,0.6v0.9c0,0.3-0.3,0.6-0.6,0.6h-3c-0.3,0-0.6-0.3-0.6-0.6v-0.9
	C15,12.2,15.2,11.9,15.6,11.9z"/>
<path class="st1" d="M4.1,16.7h3c0.3,0,0.6,0.3,0.6,0.6v0.9c0,0.3-0.3,0.6-0.6,0.6h-3c-0.3,0-0.6-0.3-0.6-0.6v-0.9
	C3.5,17,3.8,16.7,4.1,16.7z"/>
<path class="st0" d="M36.4,9.7c-0.1,0-0.2,0-0.2,0h-3c-0.3,0-0.6-0.3-0.6-0.6V8.2c0-0.3,0.3-0.6,0.6-0.6h2C35.6,8.3,36,9,36.4,9.7z"
	/>
<path class="st0" d="M31.1,3.4c-0.1,0.2-0.3,0.2-0.5,0.2h-3C27.3,3.6,27,3.3,27,3v0V2.1c0-0.3,0.3-0.6,0.6-0.6l0,0H28
	C29.1,2,30.1,2.6,31.1,3.4z"/>
<path class="st2" d="M27.4,9.4h3c0.3,0,0.6,0.3,0.6,0.6V11c0,0.3-0.3,0.6-0.6,0.6h-3c-0.3,0-0.6-0.3-0.6-0.6V10
	C26.8,9.7,27.1,9.4,27.4,9.4z"/>
<path class="st2" d="M29,34.4l-0.4,0.3l-0.1,0c-0.9,0.5-1.8,0.9-2.8,1.2h-0.2c-0.3,0-0.6-0.3-0.6-0.6v-0.9c0-0.3,0.3-0.6,0.6-0.6h3
	C28.8,33.8,29,34.1,29,34.4z"/>
<path class="st3" d="M21,19.8h3c0.3,0,0.6,0.3,0.6,0.6v0.9c0,0.3-0.3,0.6-0.6,0.6h-3c-0.3,0-0.6-0.3-0.6-0.6v-0.9
	C20.4,20.1,20.7,19.8,21,19.8z"/>
<path class="st2" d="M16.1,3.9h3c0.3,0,0.6,0.3,0.6,0.6v0.9C19.6,5.7,19.4,6,19,6h-3c-0.3,0-0.6-0.3-0.6-0.6V4.5
	C15.5,4.1,15.7,3.9,16.1,3.9z"/>
<path class="st2" d="M25.8,26.8h3c0.3,0,0.6,0.3,0.6,0.6v0.9c0,0.3-0.3,0.6-0.6,0.6h-3c-0.3,0-0.6-0.3-0.6-0.6v-0.9
	C25.2,27,25.5,26.8,25.8,26.8z"/>
<path class="st1" d="M11.9,29.7h3c0.3,0,0.6,0.3,0.6,0.6v0.9c0,0.3-0.3,0.6-0.6,0.6h-3c-0.3,0-0.6-0.3-0.6-0.6v-0.9
	C11.3,29.9,11.6,29.7,11.9,29.7z"/>
<path class="st2" d="M9.6,15.3h3c0.3,0,0.6,0.3,0.6,0.6v0.9c0,0.3-0.3,0.6-0.6,0.6h-3c-0.3,0-0.6-0.3-0.6-0.6v-0.9
	C9,15.5,9.3,15.3,9.6,15.3z"/>
<path class="st1" d="M27.9,1.4v0.1c0,0.3-0.3,0.6-0.6,0.6l0,0h-3c-0.3,0-0.6-0.3-0.6-0.6c0,0,0,0,0,0V0.6c0-0.3,0.2-0.5,0.4-0.6
	C25.5,0.3,26.7,0.8,27.9,1.4z"/>
<path class="st2" d="M37.8,22.7c-0.2,0.7-0.4,1.4-0.7,2.1h-0.3c-0.3,0-0.6-0.3-0.6-0.6v-0.9c0-0.3,0.3-0.6,0.6-0.6L37.8,22.7z"/>
<path class="st0" d="M18.1,34.3h3c0.3,0,0.6,0.3,0.6,0.6v0.9c0,0.3-0.3,0.6-0.6,0.6h-3c-0.3,0-0.6-0.3-0.6-0.6v-0.9
	C17.5,34.6,17.8,34.3,18.1,34.3z"/>
<path class="st0" d="M23.1,22.9h3c0.3,0,0.6,0.3,0.6,0.6v0.9c0,0.3-0.3,0.6-0.6,0.6h-3c-0.3,0-0.6-0.3-0.6-0.6v-0.9
	C22.5,23.2,22.7,22.9,23.1,22.9z"/>
<path class="st0" d="M27.7,18.3h3c0.3,0,0.6,0.3,0.6,0.6v0.9c0,0.3-0.3,0.6-0.6,0.6h-3c-0.3,0-0.6-0.3-0.6-0.6v-0.9
	C27.1,18.6,27.3,18.3,27.7,18.3z"/>
<path class="st0" d="M18.1,0.1h3c0.3,0,0.6,0.3,0.6,0.6v0.9c0,0.3-0.3,0.6-0.6,0.6h-3c-0.3,0-0.6-0.3-0.6-0.6V0.7
	C17.5,0.4,17.8,0.1,18.1,0.1z"/>
<path class="st3" d="M15.1,7.2h3c0.3,0,0.6,0.3,0.6,0.6v0.9c0,0.3-0.3,0.6-0.6,0.6h-3c-0.3,0-0.6-0.3-0.6-0.6V7.8
	C14.5,7.5,14.7,7.2,15.1,7.2z"/>
<path class="st0" d="M31.5,32.7c-0.8,0.7-1.7,1.2-2.5,1.8l-0.5,0.3h-0.2c-0.3,0-0.6-0.3-0.6-0.6v-0.9c0-0.3,0.3-0.6,0.6-0.6h3
	C31.4,32.6,31.5,32.6,31.5,32.7z"/>
<path class="st0" d="M36.8,25.7c-0.3,0.7-0.7,1.4-1.1,2.1h-1.5c-0.3,0-0.6-0.3-0.6-0.6v-0.9c0-0.3,0.3-0.6,0.6-0.6L36.8,25.7z"/>
<path class="st2" d="M15.1,19.7h3c0.3,0,0.6,0.3,0.6,0.6v0.9c0,0.3-0.3,0.6-0.6,0.6h-3c-0.3,0-0.6-0.3-0.6-0.6v-0.9
	C14.5,19.9,14.7,19.7,15.1,19.7z"/>
<path class="st3" d="M22.8,12.1h3c0.3,0,0.6,0.3,0.6,0.6v0.9c0,0.3-0.3,0.6-0.6,0.6h-3c-0.3,0-0.6-0.3-0.6-0.6v-0.9
	C22.2,12.3,22.5,12.1,22.8,12.1z"/>
<path class="st3" d="M26.1,5.2h3c0.3,0,0.6,0.3,0.6,0.6v0.9c0,0.3-0.3,0.6-0.6,0.6h-3c-0.3,0-0.6-0.3-0.6-0.6V5.8
	C25.5,5.5,25.7,5.2,26.1,5.2z"/>
<path class="st3" d="M37.7,13.1h-2.3c-0.3,0-0.6-0.3-0.6-0.6v-0.9c0-0.3,0.3-0.6,0.6-0.6h1.6C37.2,11.7,37.5,12.4,37.7,13.1z"/>
<path class="st0" d="M23,6.2h3c0.3,0,0.6,0.3,0.6,0.6v0.9c0,0.3-0.3,0.6-0.6,0.6h-3c-0.3,0-0.6-0.3-0.6-0.6V6.8
	C22.4,6.4,22.6,6.2,23,6.2z"/>
<path class="st1" d="M29.7,10.4h3c0.3,0,0.6,0.3,0.6,0.6v0.9c0,0.3-0.3,0.6-0.6,0.6h-3c-0.3,0-0.6-0.3-0.6-0.6V11
	C29.1,10.6,29.4,10.4,29.7,10.4z"/>
<path class="st3" d="M31.7,21.4h3c0.3,0,0.6,0.3,0.6,0.6v0.9c0,0.3-0.3,0.6-0.6,0.6h-3c-0.3,0-0.6-0.3-0.6-0.6V22
	C31.1,21.6,31.3,21.4,31.7,21.4z"/>
<path class="st0" d="M38.4,18.9c0,0.7-0.1,1.4-0.2,2.1h-2.2c-0.3,0-0.6-0.3-0.6-0.6v-1c0-0.3,0.3-0.6,0.6-0.6L38.4,18.9z"/>
<path class="st3" d="M13,23.3h3c0.3,0,0.6,0.3,0.6,0.6v0.9c0,0.3-0.3,0.6-0.6,0.6h-3c-0.3,0-0.6-0.3-0.6-0.6v-0.9
	C12.4,23.6,12.7,23.3,13,23.3z"/>
<path class="st1" d="M25.1,17h3c0.3,0,0.6,0.3,0.6,0.6v0.9c0,0.3-0.3,0.6-0.6,0.6h-3c-0.3,0-0.6-0.3-0.6-0.6v-0.9
	C24.5,17.3,24.8,17,25.1,17z"/>
<path class="st1" d="M21.7,2.9h3c0.3,0,0.6,0.3,0.6,0.6v0.9C25.3,4.8,25,5,24.7,5h-3c-0.3,0-0.6-0.3-0.6-0.6V3.5
	C21.1,3.2,21.4,2.9,21.7,2.9z"/>
<path class="st1" d="M27.7,25.7h3c0.3,0,0.6,0.3,0.6,0.6v0.9c0,0.3-0.3,0.6-0.6,0.6h-3c-0.3,0-0.6-0.3-0.6-0.6v-0.9
	C27.1,26,27.4,25.7,27.7,25.7z"/>
<path class="st0" d="M17.1,16.4h3c0.3,0,0.6,0.3,0.6,0.6v0.9c0,0.3-0.3,0.6-0.6,0.6h-3c-0.3,0-0.6-0.3-0.6-0.6V17
	C16.5,16.7,16.8,16.4,17.1,16.4z"/>
</svg>
