<?xml version="1.0" encoding="utf-8"?>
<!-- Generator: Adobe Illustrator 26.0.2, SVG Export Plug-In . SVG Version: 6.00 Build 0)  -->
<svg version="1.1" id="Layer_1" xmlns="http://www.w3.org/2000/svg" xmlns:xlink="http://www.w3.org/1999/xlink" x="0px" y="0px"
	 viewBox="0 0 239.5 36.5" style="enable-background:new 0 0 239.5 36.5;" xml:space="preserve">
<style type="text/css">
	.st0{display:none;}
	.st1{fill:#FFFFFF;}
	.st2{fill:#B20838;}
	.st3{fill:#6DCAD7;}
	.st4{fill:#B7CA33;}
	.st5{fill:#00967F;}
</style>
<rect x="-52.6" y="-13.5" class="st0" width="366.7" height="74"/>
<path class="st1" d="M64.7,31.3c-1.9,0-3.7-0.3-5.5-1c-1.6-0.6-3-1.6-4.2-2.8c-1.2-1.2-2.1-2.6-2.7-4.1c-0.7-1.7-1-3.4-1-5.2l0,0
	c0-1.7,0.3-3.5,1-5.1c0.6-1.6,1.6-3,2.7-4.2c2.5-2.6,6-4.1,9.6-4.1c1,0,2.1,0.1,3.1,0.2c0.9,0.1,1.7,0.4,2.6,0.7
	c0.8,0.3,1.5,0.7,2.2,1.1s1.4,0.9,2,1.5l-2.9,3.4c-0.5-0.4-1-0.8-1.5-1.1S69,10,68.5,9.7C68,9.3,67.3,9.2,66.7,9
	c-0.7-0.1-1.5-0.2-2.2-0.2c-1.1,0-2.2,0.2-3.3,0.7c-1,0.5-1.9,1.1-2.7,2c-0.8,0.8-1.4,1.8-1.8,2.9c-0.4,1.1-0.7,2.3-0.7,3.5l0,0
	c0,1.3,0.2,2.6,0.6,3.8c0.8,2.2,2.4,4,4.5,4.9c1.1,0.5,2.3,0.7,3.6,0.7c1.2,0,2.3-0.3,3.4-0.7c1-0.3,1.9-0.8,2.8-1.4v-4.9h-6.5v-3.8
	h10.8v10.8c-0.7,0.6-1.4,1.1-2.1,1.5c-1.6,1-3.5,1.8-5.4,2.1C66.9,31.2,65.8,31.3,64.7,31.3z"/>
<path class="st1" d="M79.3,5.1h4.5v25.7h-4.5V5.1z"/>
<path class="st1" d="M96.7,31.3c-1.4,0-2.8-0.3-4.1-0.8c-1.2-0.5-2.3-1.2-3.3-2.1c-0.9-0.9-1.7-2-2.1-3.3c-0.5-1.2-0.8-2.6-0.8-3.9
	l0,0c0-1.4,0.3-2.7,0.8-3.9c1-2.4,3-4.4,5.4-5.4c1.3-0.5,2.7-0.8,4.1-0.8s2.8,0.3,4.1,0.8c2.4,1,4.4,2.9,5.4,5.3
	c0.5,1.2,0.8,2.6,0.8,3.9l0,0c0,1.3-0.3,2.7-0.8,3.9c-1,2.4-3,4.4-5.5,5.4C99.5,31,98.1,31.3,96.7,31.3z M96.7,27.4
	c0.8,0,1.7-0.2,2.4-0.5c0.7-0.3,1.3-0.8,1.8-1.3c0.5-0.6,0.9-1.2,1.2-2c0.3-0.8,0.4-1.6,0.4-2.4l0,0c0-0.8-0.1-1.6-0.4-2.4
	c-0.3-0.7-0.7-1.4-1.2-2s-1.2-1-1.9-1.3c-1.5-0.7-3.3-0.7-4.8,0c-0.7,0.3-1.3,0.8-1.8,1.3c-0.5,0.6-0.9,1.2-1.2,2
	c-0.3,0.8-0.4,1.6-0.4,2.4l0,0c0,0.8,0.1,1.6,0.4,2.4c0.3,0.7,0.7,1.4,1.2,2s1.2,1,1.9,1.4C95.1,27.3,95.9,27.4,96.7,27.4L96.7,27.4
	z"/>
<path class="st1" d="M120.5,31.2c-1.4,0.1-2.8-0.3-4-1c-1-0.6-1.9-1.4-2.6-2.4v3h-4.5V5.1h4.5v9.6c0.7-1,1.6-1.9,2.7-2.6
	c1.2-0.7,2.5-1.1,3.9-1c1.1,0,2.3,0.2,3.3,0.7c1.1,0.4,2,1.1,2.8,1.9c0.9,0.9,1.6,2,2,3.3c0.5,1.4,0.8,2.8,0.8,4.3l0,0
	c0,1.5-0.2,2.9-0.7,4.3c-0.5,1.2-1.1,2.2-2,3.2c-0.8,0.8-1.8,1.5-2.9,2C122.8,31,121.7,31.2,120.5,31.2z M119.5,27.4
	c0.7,0,1.5-0.1,2.1-0.4c0.7-0.3,1.3-0.7,1.8-1.2c0.5-0.6,0.9-1.2,1.2-2c0.3-0.8,0.5-1.7,0.4-2.6l0,0c0-0.9-0.1-1.8-0.4-2.7
	c-0.3-0.7-0.7-1.4-1.2-2c-0.5-0.5-1.1-1-1.8-1.3c-0.7-0.3-1.4-0.4-2.1-0.4s-1.5,0.1-2.2,0.4c-0.7,0.3-1.3,0.7-1.8,1.3
	s-0.9,1.2-1.2,2c-0.3,0.8-0.5,1.7-0.5,2.5l0,0c0,0.9,0.1,1.7,0.5,2.6c0.3,0.7,0.7,1.4,1.2,2c1,1.1,2.5,1.6,4,1.6V27.4z"/>
<path class="st1" d="M143.9,30.8v-2.4c-0.7,0.8-1.6,1.5-2.5,2c-1.2,0.6-2.4,0.8-3.7,0.8c-0.9,0-1.8-0.1-2.7-0.4
	c-0.8-0.2-1.5-0.6-2.2-1.1c-1.4-1.1-2.1-2.7-2.1-4.5l0,0c0-1,0.2-1.9,0.6-2.8c0.4-0.8,0.9-1.5,1.6-2c0.8-0.5,1.6-0.9,2.5-1.2
	c1-0.3,2.1-0.4,3.1-0.4s2,0.1,3,0.2c0.8,0.1,1.6,0.3,2.4,0.6v-0.4c0.1-1.2-0.4-2.3-1.2-3.1c-1-0.8-2.3-1.2-3.5-1.1
	c-1,0-2,0.1-2.9,0.3s-1.8,0.5-2.6,0.9l-1.3-3.6c1-0.5,2.1-0.9,3.3-1.2c1.3-0.3,2.7-0.5,4.1-0.4c2.4-0.2,4.7,0.6,6.5,2.1
	c1.5,1.7,2.2,3.8,2.1,6v11.5L143.9,30.8z M144,22.7c-0.6-0.2-1.3-0.4-2-0.6c-0.8-0.2-1.6-0.2-2.4-0.2c-1.1-0.1-2.3,0.2-3.3,0.8
	c-0.8,0.5-1.2,1.3-1.2,2.2l0,0c0,0.9,0.4,1.7,1.1,2.1c0.8,0.5,1.7,0.8,2.7,0.8c0.7,0,1.4-0.1,2-0.3c0.6-0.2,1.1-0.5,1.6-0.8
	s0.8-0.8,1.1-1.3s0.4-1.1,0.4-1.6L144,22.7z"/>
<path class="st1" d="M151.7,5.1h4.5v25.7h-4.5V5.1z"/>
<path class="st1" d="M160.1,5.1h6.7l10.6,13.6V5.1h7v25.7h-6.3l-11-14.1v14.1h-7V5.1z"/>
<path class="st1" d="M200.2,31.3c-1.9,0-3.8-0.3-5.5-1c-1.6-0.7-3.1-1.6-4.4-2.8c-1.2-1.2-2.2-2.6-2.9-4.2s-1.1-3.4-1-5.2l0,0
	c0-3.6,1.4-7,4-9.5c1.3-1.2,2.8-2.2,4.4-2.9c3.5-1.4,7.5-1.4,11,0c1.6,0.7,3.1,1.6,4.4,2.8c1.2,1.2,2.2,2.6,2.9,4.2s1.1,3.4,1,5.2
	l0,0c0,3.6-1.4,7-4,9.5c-1.3,1.2-2.8,2.2-4.4,2.9C204,31,202.1,31.4,200.2,31.3z M200.2,24.8c0.9,0,1.8-0.2,2.7-0.6
	c0.8-0.4,1.5-0.9,2.1-1.5s1-1.4,1.3-2.2c0.3-0.8,0.5-1.7,0.5-2.7l0,0c0-0.9-0.2-1.8-0.5-2.7c-0.3-0.8-0.8-1.6-1.4-2.2
	c-0.6-0.6-1.3-1.2-2.1-1.5c-1.7-0.7-3.7-0.7-5.4,0c-1.6,0.7-2.8,2-3.4,3.6c-0.3,0.8-0.5,1.7-0.5,2.7l0,0c0,0.9,0.2,1.8,0.5,2.7
	c0.3,0.8,0.8,1.6,1.3,2.2c0.6,0.6,1.3,1.2,2.1,1.5C198.2,24.5,199.2,24.8,200.2,24.8L200.2,24.8z"/>
<path class="st1" d="M228.3,31.3c-1.8,0-3.5-0.3-5.2-1c-1.6-0.6-3-1.6-4.2-2.8c-2.5-2.5-3.9-6-3.9-9.5l0,0c0-3.6,1.4-7,3.9-9.5
	c1.2-1.2,2.7-2.2,4.3-2.8c1.7-0.7,3.6-1,5.4-1c1.2,0,2.4,0.1,3.6,0.4c1,0.2,2,0.6,3,1.1c0.9,0.5,1.7,1,2.4,1.7s1.4,1.4,1.9,2.2
	l-5.4,4.1c-0.7-0.9-1.5-1.6-2.4-2.2c-1-0.6-2.1-0.9-3.3-0.8c-0.9,0-1.7,0.2-2.5,0.5c-0.7,0.3-1.4,0.8-1.9,1.4
	c-0.6,0.6-1,1.4-1.3,2.2s-0.5,1.7-0.5,2.7l0,0c0,0.9,0.1,1.8,0.5,2.7c0.3,0.8,0.7,1.5,1.3,2.2c0.5,0.6,1.2,1.1,1.9,1.4
	c0.8,0.4,1.6,0.5,2.5,0.5c0.6,0,1.2-0.1,1.8-0.2c0.5-0.1,1-0.4,1.5-0.7c0.5-0.3,0.9-0.6,1.3-1c0.4-0.4,0.8-0.8,1.2-1.3l5.4,3.8
	c-0.6,0.8-1.3,1.6-2,2.3c-0.7,0.7-1.6,1.3-2.5,1.8c-1,0.5-2,0.9-3.1,1.2C230.8,31.2,229.5,31.3,228.3,31.3z"/>
<path class="st2" d="M4.3,28.6h3c0.3,0,0.6,0.3,0.6,0.6v0.9c0,0.3-0.3,0.6-0.6,0.6h-3c-0.3,0-0.6-0.3-0.6-0.6v-0.9
	C3.7,28.9,4,28.6,4.3,28.6z"/>
<path class="st2" d="M0.6,10.2h3c0.3,0,0.6,0.3,0.6,0.6v0.9c0,0.3-0.3,0.6-0.6,0.6h-3C0.3,12.3,0,12,0,11.7v-0.9
	C0,10.5,0.3,10.2,0.6,10.2z"/>
<path class="st3" d="M38.3,16.3h-1.1c-0.3,0-0.6-0.3-0.6-0.6v-0.9c0-0.3,0.3-0.6,0.6-0.6h0.7C38.1,14.8,38.2,15.5,38.3,16.3z"/>
<path class="st4" d="M29.3,22.2h3c0.3,0,0.6,0.3,0.6,0.6v0.9c0,0.3-0.3,0.6-0.6,0.6h-3c-0.3,0-0.6-0.3-0.6-0.6v-0.9
	C28.7,22.5,29,22.2,29.3,22.2z"/>
<path class="st3" d="M19.8,15.3h3c0.3,0,0.6,0.3,0.6,0.6v0.9c0,0.3-0.3,0.6-0.6,0.6h-3c-0.3,0-0.6-0.3-0.6-0.6v-0.9
	C19.2,15.6,19.5,15.3,19.8,15.3z"/>
<path class="st5" d="M34.6,29.4c-0.5,0.7-1.1,1.4-1.7,2h-1.6c-0.3,0-0.6-0.3-0.6-0.6l0,0v-0.9c0-0.3,0.3-0.6,0.6-0.6l0,0h3
	C34.4,29.3,34.5,29.4,34.6,29.4z"/>
<path class="st4" d="M12,8.1h3c0.3,0,0.6,0.3,0.6,0.6v0.9c0,0.3-0.3,0.6-0.6,0.6h-3c-0.3,0-0.6-0.3-0.6-0.6V8.7
	C11.4,8.4,11.6,8.1,12,8.1z"/>
<path class="st2" d="M6.7,22.6h3c0.3,0,0.6,0.3,0.6,0.6v0.9c0,0.3-0.3,0.6-0.6,0.6h-3c-0.3,0-0.6-0.3-0.6-0.6v-0.9
	C6.1,22.9,6.4,22.6,6.7,22.6z"/>
<path class="st4" d="M32.5,15.8h3c0.3,0,0.6,0.3,0.6,0.6v0.9c0,0.3-0.3,0.6-0.6,0.6h-3c-0.3,0-0.6-0.3-0.6-0.6v-0.9
	C31.9,16.1,32.2,15.8,32.5,15.8z"/>
<path class="st2" d="M8.6,4.5h3c0.3,0,0.6,0.3,0.6,0.6V6c0,0.3-0.3,0.6-0.6,0.6h-3C8.3,6.7,8,6.4,8,6.1v-1C8,4.8,8.3,4.5,8.6,4.5z"
	/>
<path class="st4" d="M34.2,6.3h-2.5c-0.3,0-0.6-0.3-0.6-0.6l0,0V4.8c0-0.3,0.3-0.6,0.6-0.6l0,0h0.5C32.9,4.9,33.5,5.6,34.2,6.3z"/>
<path class="st5" d="M6.8,11.3h3c0.3,0,0.6,0.3,0.6,0.6v0.9c0,0.3-0.3,0.6-0.6,0.6h-3c-0.3,0-0.6-0.3-0.6-0.6v-0.9
	C6.2,11.6,6.4,11.3,6.8,11.3z"/>
<path class="st2" d="M28,13.8h3c0.3,0,0.6,0.3,0.6,0.6v0.9c0,0.3-0.3,0.6-0.6,0.6h-3c-0.3,0-0.6-0.3-0.6-0.6v-0.9
	C27.4,14,27.7,13.8,28,13.8z"/>
<path class="st2" d="M18.1,28.4h3c0.3,0,0.6,0.3,0.6,0.6v1c0,0.3-0.3,0.6-0.6,0.6h-3c-0.3,0-0.6-0.3-0.6-0.6v-1
	C17.5,28.7,17.7,28.4,18.1,28.4z"/>
<path class="st4" d="M20.2,9.3h3c0.3,0,0.6,0.3,0.6,0.6v0.9c0,0.3-0.3,0.6-0.6,0.6h-3c-0.3,0-0.6-0.3-0.6-0.6V9.9
	C19.6,9.6,19.9,9.3,20.2,9.3z"/>
<path class="st5" d="M12,1.5h3c0.3,0,0.6,0.3,0.6,0.6V3c0,0.3-0.3,0.6-0.6,0.6h-3c-0.3,0-0.6-0.3-0.6-0.6V2.1
	C11.4,1.8,11.7,1.5,12,1.5z"/>
<path class="st5" d="M20.2,24.4h3c0.3,0,0.6,0.3,0.6,0.6v0.9c0,0.3-0.3,0.6-0.6,0.6h-3c-0.3,0-0.6-0.3-0.6-0.6V25
	C19.6,24.7,19.9,24.4,20.2,24.4z"/>
<path class="st5" d="M23.4,30.3h3c0.3,0,0.6,0.3,0.6,0.6v0.9c0,0.3-0.3,0.6-0.6,0.6h-3c-0.3,0-0.6-0.3-0.6-0.6v-0.9
	C22.8,30.6,23.1,30.3,23.4,30.3z"/>
<path class="st2" d="M15.6,11.9h3c0.3,0,0.6,0.3,0.6,0.6v0.9c0,0.3-0.3,0.6-0.6,0.6h-3c-0.3,0-0.6-0.3-0.6-0.6v-0.9
	C15,12.2,15.2,11.9,15.6,11.9z"/>
<path class="st3" d="M4.1,16.7h3c0.3,0,0.6,0.3,0.6,0.6v0.9c0,0.3-0.3,0.6-0.6,0.6h-3c-0.3,0-0.6-0.3-0.6-0.6v-0.9
	C3.5,17,3.8,16.7,4.1,16.7z"/>
<path class="st2" d="M36.4,9.7c-0.1,0-0.2,0-0.2,0h-3c-0.3,0-0.6-0.3-0.6-0.6V8.2c0-0.3,0.3-0.6,0.6-0.6h2C35.6,8.3,36,9,36.4,9.7z"
	/>
<path class="st2" d="M31.1,3.4c-0.1,0.2-0.3,0.2-0.5,0.2h-3C27.3,3.6,27,3.3,27,3l0,0V2.1c0-0.3,0.3-0.6,0.6-0.6l0,0H28
	C29.1,2,30.1,2.6,31.1,3.4z"/>
<path class="st4" d="M27.4,9.4h3c0.3,0,0.6,0.3,0.6,0.6v1c0,0.3-0.3,0.6-0.6,0.6h-3c-0.3,0-0.6-0.3-0.6-0.6v-1
	C26.8,9.7,27.1,9.4,27.4,9.4z"/>
<path class="st4" d="M29,34.4l-0.4,0.3h-0.1c-0.9,0.5-1.8,0.9-2.8,1.2h-0.2c-0.3,0-0.6-0.3-0.6-0.6v-0.9c0-0.3,0.3-0.6,0.6-0.6h3
	C28.8,33.8,29,34.1,29,34.4z"/>
<path class="st5" d="M21,19.8h3c0.3,0,0.6,0.3,0.6,0.6v0.9c0,0.3-0.3,0.6-0.6,0.6h-3c-0.3,0-0.6-0.3-0.6-0.6v-0.9
	C20.4,20.1,20.7,19.8,21,19.8z"/>
<path class="st4" d="M16.1,3.9h3c0.3,0,0.6,0.3,0.6,0.6v0.9C19.6,5.7,19.4,6,19,6h-3c-0.3,0-0.6-0.3-0.6-0.6V4.5
	C15.5,4.1,15.7,3.9,16.1,3.9z"/>
<path class="st4" d="M25.8,26.8h3c0.3,0,0.6,0.3,0.6,0.6v0.9c0,0.3-0.3,0.6-0.6,0.6h-3c-0.3,0-0.6-0.3-0.6-0.6v-0.9
	C25.2,27,25.5,26.8,25.8,26.8z"/>
<path class="st3" d="M11.9,29.7h3c0.3,0,0.6,0.3,0.6,0.6v0.9c0,0.3-0.3,0.6-0.6,0.6h-3c-0.3,0-0.6-0.3-0.6-0.6v-0.9
	C11.3,29.9,11.6,29.7,11.9,29.7z"/>
<path class="st4" d="M9.6,15.3h3c0.3,0,0.6,0.3,0.6,0.6v0.9c0,0.3-0.3,0.6-0.6,0.6h-3c-0.3,0-0.6-0.3-0.6-0.6v-0.9
	C9,15.5,9.3,15.3,9.6,15.3z"/>
<path class="st3" d="M27.9,1.4v0.1c0,0.3-0.3,0.6-0.6,0.6l0,0h-3c-0.3,0-0.6-0.3-0.6-0.6l0,0V0.6c0-0.3,0.2-0.5,0.4-0.6
	C25.5,0.3,26.7,0.8,27.9,1.4z"/>
<path class="st4" d="M37.8,22.7c-0.2,0.7-0.4,1.4-0.7,2.1h-0.3c-0.3,0-0.6-0.3-0.6-0.6v-0.9c0-0.3,0.3-0.6,0.6-0.6H37.8z"/>
<path class="st2" d="M18.1,34.3h3c0.3,0,0.6,0.3,0.6,0.6v0.9c0,0.3-0.3,0.6-0.6,0.6h-3c-0.3,0-0.6-0.3-0.6-0.6v-0.9
	C17.5,34.6,17.8,34.3,18.1,34.3z"/>
<path class="st2" d="M23.1,22.9h3c0.3,0,0.6,0.3,0.6,0.6v0.9c0,0.3-0.3,0.6-0.6,0.6h-3c-0.3,0-0.6-0.3-0.6-0.6v-0.9
	C22.5,23.2,22.7,22.9,23.1,22.9z"/>
<path class="st2" d="M27.7,18.3h3c0.3,0,0.6,0.3,0.6,0.6v0.9c0,0.3-0.3,0.6-0.6,0.6h-3c-0.3,0-0.6-0.3-0.6-0.6v-0.9
	C27.1,18.6,27.3,18.3,27.7,18.3z"/>
<path class="st2" d="M18.1,0.1h3c0.3,0,0.6,0.3,0.6,0.6v0.9c0,0.3-0.3,0.6-0.6,0.6h-3c-0.3,0-0.6-0.3-0.6-0.6V0.7
	C17.5,0.4,17.8,0.1,18.1,0.1z"/>
<path class="st5" d="M15.1,7.2h3c0.3,0,0.6,0.3,0.6,0.6v0.9c0,0.3-0.3,0.6-0.6,0.6h-3c-0.3,0-0.6-0.3-0.6-0.6V7.8
	C14.5,7.5,14.7,7.2,15.1,7.2z"/>
<path class="st2" d="M31.5,32.7c-0.8,0.7-1.7,1.2-2.5,1.8l-0.5,0.3h-0.2c-0.3,0-0.6-0.3-0.6-0.6v-0.9c0-0.3,0.3-0.6,0.6-0.6h3
	C31.4,32.6,31.5,32.6,31.5,32.7z"/>
<path class="st2" d="M36.8,25.7c-0.3,0.7-0.7,1.4-1.1,2.1h-1.5c-0.3,0-0.6-0.3-0.6-0.6v-0.9c0-0.3,0.3-0.6,0.6-0.6H36.8z"/>
<path class="st4" d="M15.1,19.7h3c0.3,0,0.6,0.3,0.6,0.6v0.9c0,0.3-0.3,0.6-0.6,0.6h-3c-0.3,0-0.6-0.3-0.6-0.6v-0.9
	C14.5,19.9,14.7,19.7,15.1,19.7z"/>
<path class="st5" d="M22.8,12.1h3c0.3,0,0.6,0.3,0.6,0.6v0.9c0,0.3-0.3,0.6-0.6,0.6h-3c-0.3,0-0.6-0.3-0.6-0.6v-0.9
	C22.2,12.3,22.5,12.1,22.8,12.1z"/>
<path class="st5" d="M26.1,5.2h3c0.3,0,0.6,0.3,0.6,0.6v0.9c0,0.3-0.3,0.6-0.6,0.6h-3c-0.3,0-0.6-0.3-0.6-0.6V5.8
	C25.5,5.5,25.7,5.2,26.1,5.2z"/>
<path class="st5" d="M37.7,13.1h-2.3c-0.3,0-0.6-0.3-0.6-0.6v-0.9c0-0.3,0.3-0.6,0.6-0.6H37C37.2,11.7,37.5,12.4,37.7,13.1z"/>
<path class="st2" d="M23,6.2h3c0.3,0,0.6,0.3,0.6,0.6v0.9c0,0.3-0.3,0.6-0.6,0.6h-3c-0.3,0-0.6-0.3-0.6-0.6V6.8
	C22.4,6.4,22.6,6.2,23,6.2z"/>
<path class="st3" d="M29.7,10.4h3c0.3,0,0.6,0.3,0.6,0.6v0.9c0,0.3-0.3,0.6-0.6,0.6h-3c-0.3,0-0.6-0.3-0.6-0.6V11
	C29.1,10.6,29.4,10.4,29.7,10.4z"/>
<path class="st5" d="M31.7,21.4h3c0.3,0,0.6,0.3,0.6,0.6v0.9c0,0.3-0.3,0.6-0.6,0.6h-3c-0.3,0-0.6-0.3-0.6-0.6V22
	C31.1,21.6,31.3,21.4,31.7,21.4z"/>
<path class="st2" d="M38.4,18.9c0,0.7-0.1,1.4-0.2,2.1H36c-0.3,0-0.6-0.3-0.6-0.6v-1c0-0.3,0.3-0.6,0.6-0.6L38.4,18.9z"/>
<path class="st5" d="M13,23.3h3c0.3,0,0.6,0.3,0.6,0.6v0.9c0,0.3-0.3,0.6-0.6,0.6h-3c-0.3,0-0.6-0.3-0.6-0.6v-0.9
	C12.4,23.6,12.7,23.3,13,23.3z"/>
<path class="st3" d="M25.1,17h3c0.3,0,0.6,0.3,0.6,0.6v0.9c0,0.3-0.3,0.6-0.6,0.6h-3c-0.3,0-0.6-0.3-0.6-0.6v-0.9
	C24.5,17.3,24.8,17,25.1,17z"/>
<path class="st3" d="M21.7,2.9h3c0.3,0,0.6,0.3,0.6,0.6v0.9C25.3,4.8,25,5,24.7,5h-3c-0.3,0-0.6-0.3-0.6-0.6V3.5
	C21.1,3.2,21.4,2.9,21.7,2.9z"/>
<path class="st3" d="M27.7,25.7h3c0.3,0,0.6,0.3,0.6,0.6v0.9c0,0.3-0.3,0.6-0.6,0.6h-3c-0.3,0-0.6-0.3-0.6-0.6v-0.9
	C27.1,26,27.4,25.7,27.7,25.7z"/>
<path class="st2" d="M17.1,16.4h3c0.3,0,0.6,0.3,0.6,0.6v0.9c0,0.3-0.3,0.6-0.6,0.6h-3c-0.3,0-0.6-0.3-0.6-0.6V17
	C16.5,16.7,16.8,16.4,17.1,16.4z"/>
</svg>
